# xmcd
#
# Track frame offsets:
#	150
#	10075
#	22560
#	35740
#	47890
#	65282
#	78845
#	96697
#	112167
#	129222
#	143465
#	162072
#	175625
#	189682
#	200887
#	214320
#	227760
#	241055
#	257667
#	273055
#	287150
#	302812
#	316930
#
# Disc length: 4431 seconds
#
# Revision: 1
# Processed by: cddbd v1.5.2PL0 Copyright (c) Steve Scherf et al.
# Submitted via: audiograbber 1.83.01
#
DISCID=3a114d17
DTITLE=O.C. Smith - The Very Best Of O.C. Smith
DYEAR=2003
DGENRE=Pop
TTITLE0=I'm Your Man
TTITLE1=That's Life
TTITLE2=Beyond The Next Hill
TTITLE3=The Season
TTITLE4=The Son Of Hickory Holler's Tramp
TTITLE5=Main Street Mission
TTITLE6=Little Green Apples
TTITLE7=Isn't It Lonely Together
TTITLE8=Honey (I Miss You)
TTITLE9=Friend, Lover, Woman, Wife
TTITLE10=Daddy's Little Man
TTITLE11=Me And You
TTITLE12=Moody
TTITLE13=Primrose Lane
TTITLE14=Baby, I Need Your Loving
TTITLE15=Downtown U.S.A.
TTITLE16=I've Been There
TTITLE17=Help Me Make It Through The Night
TTITLE18=Suddenly, It's All Tomorrow
TTITLE19=Don't Misunderstand
TTITLE20=La La Peace Song
TTITLE21=Together
TTITLE22=Simple Life
EXTD=
EXTT0=
EXTT1=
EXTT2=
EXTT3=
EXTT4=
EXTT5=
EXTT6=
EXTT7=
EXTT8=
EXTT9=
EXTT10=
EXTT11=
EXTT12=
EXTT13=
EXTT14=
EXTT15=
EXTT16=
EXTT17=
EXTT18=
EXTT19=
EXTT20=
EXTT21=
EXTT22=
PLAYORDER=
